<?xml version="1.0" encoding="UTF-8"?>
<svg width="420px" height="915px" viewBox="0 0 420 915" version="1.1" xmlns="http://www.w3.org/2000/svg" xmlns:xlink="http://www.w3.org/1999/xlink">
    <!-- Generator: Sketch 61.2 (89653) - https://sketch.com -->
    <title>side-img1</title>
    <desc>Created with Sketch.</desc>
    <defs>
        <linearGradient x1="23.3529389%" y1="15.9321271%" x2="110.237462%" y2="113.383076%" id="linearGradient-1">
            <stop stop-color="#FF4B6E" offset="0%"></stop>
            <stop stop-color="#2234D7" offset="100%"></stop>
        </linearGradient>
        <filter x="0.0%" y="0.0%" width="100.0%" height="100.0%" filterUnits="objectBoundingBox" id="filter-2">
            <feGaussianBlur stdDeviation="0" in="SourceGraphic"></feGaussianBlur>
        </filter>
        <linearGradient x1="100%" y1="38.681112%" x2="-23.6167228%" y2="38.681112%" id="linearGradient-3">
            <stop stop-color="#F7F8F9" offset="0%"></stop>
            <stop stop-color="#2437DA" offset="100%"></stop>
        </linearGradient>
    </defs>
    <g id="side-img1" stroke="none" stroke-width="1" fill="none" fill-rule="evenodd">
        <path d="M-80,632.246955 L228.571429,632.246955 C238.252101,630.765226 243.294118,635.951278 243.697479,647.805111 C244.10084,659.658944 244.10084,826.723907 243.697479,1149" id="Path-11" stroke="#2CC3F8"></path>
        <rect id="Rectangle" fill="#FFC107" x="90" y="418" width="193" height="185" rx="36"></rect>
        <ellipse id="Oval" fill="url(#linearGradient-1)" filter="url(#filter-2)" cx="280.5" cy="525" rx="48.5" ry="48"></ellipse>
        <polyline id="Path-30" stroke="#FFFFFF" stroke-width="2" transform="translate(305.631118, 505.477260) rotate(-13.000000) translate(-305.631118, -505.477260) " points="264.938645 506.187877 272.962713 528.387903 346.32359 482.566616"></polyline>
        <path d="M-39,380 L192,380 L192,380 L192,414 C192,433.882251 175.882251,450 156,450 L-39,450 C-58.3299662,450 -74,434.329966 -74,415 C-74,395.670034 -58.3299662,380 -39,380 Z" id="Rectangle" fill="url(#linearGradient-3)"></path>
        <path d="M131.819013,681 C139.937768,731.776353 142.671957,762.776353 140.021577,774 C136.835739,787.491175 123.016261,795 115.01376,795 C95.6616118,795 80.9903586,786.666667 71,770" id="Path-13" stroke="#35DFEF"></path>
        <path d="M97,754 C103.289189,760.533333 109.622523,762.493333 116,759.88" id="Path-16" stroke="#35DFEF"></path>
        <path d="M104,703 C105.333333,723.666667 106,735.666667 106,739" id="Path-17" stroke="#35DFEF"></path>
        <path d="M76,706 C79.3333333,702.394376 83.3333333,702.038883 88,704.93352" id="Path-18" stroke="#35DFEF"></path>
        <path d="M113,706 C116.333333,702.394376 120.333333,702.038883 125,704.93352" id="Path-18-Copy" stroke="#35DFEF"></path>
        <path d="M-44,824 C-31.1,818.875425 -15.1,817.874405 4,820.99694 C23.1,824.119476 34.4333333,817.779683 38,801.977563 L49,737.912293 C33.9855442,733.02667 28.9855442,725.578759 34,715.56856 C39.0144558,705.558362 47.0144558,706.989492 58,719.861951" id="Path-19" stroke="#35DFEF"></path>
        <path d="M40.3155974,700.851251 C57.0116975,705.558034 67.0293575,702.532245 70.3685775,691.773884 C75.3774075,675.636343 88.4003655,695.80827 96.4144935,679.670728 C104.428622,663.533187 115.448048,698.834059 134.481602,679.670728 C153.515156,660.507398 58.8506257,627.720897 45.3244274,668.576169 C40.3155974,683.705114 40.9899272,686.490482 40.3155974,691.773884 C39.8948009,695.070843 39.8948009,698.096632 40.3155974,700.851251 Z" id="Path-20" fill="#FFFFFF"></path>
        <path d="M35,814 C64.3333333,826.987601 90.3333333,831.541313 113,827.661136" id="Path-21" stroke="#35DFEF"></path>
        <path d="M112.320584,795 C108.975105,823.666667 111.986036,839 121.353375,841 C135.404384,844 191.60842,845.819448 210.677647,874.409724 C223.390464,893.469908 225.397751,918 216.699508,948" id="Path-24" stroke="#35DFEF"></path>
        <path d="M-44.0258924,824.33673 C-36.0586401,821.926301 -30.064394,820.478226 -26.043154,819.992506 C-22.021914,819.506786 -16.0276678,819.506786 -8.06041556,819.992506 L23.9088972,819.992506 C26.6397034,819.029595 28.6377855,818.030428 29.9031433,816.995004 C31.1685012,815.95958 32.8335695,813.961246 34.8983484,811 C52.7516264,820.192964 66.0721733,825.521856 74.8599893,826.986677 C81.1983809,828.043209 89.4744653,829.915395 99.8360149,829.447836 C102.505444,829.32738 106.834622,828.506993 112.823548,826.986677 C113.641981,831.94899 114.65416,835.279548 115.860087,836.978351 C117.066013,838.677153 119.250765,839.85015 122.414342,840.497341 C137.278312,842.399204 148.400969,844.223709 155.782312,845.970856 C163.163656,847.718004 173.820093,851.048562 187.751625,855.96253 C199.889323,860.521348 208.547678,867.182463 213.726692,875.945876 C218.905705,884.709289 221.663474,897.365409 222,913.914235 C221.862393,923.477039 221.43572,930.23377 220.719979,934.184426 C220.004238,938.135082 218.372471,942.740273 215.824678,948 L-71,948 L-69.001918,834.033096 L-44.0258924,824.33673 Z" id="Path-22" fill="#35DFEF"></path>
        <path d="M269.925779,931 C276.597495,908.967556 276.597495,877.25419 269.925779,835.859901 C267.556743,821.161345 254.461948,794.89196 258.917448,788.790589 C277.931838,762.752246 305.136047,836.671692 308.955316,840.946175 C312.291174,844.679629 325.301019,823.288535 347.984853,776.772892 C355.32374,761.416946 361.995456,761.083121 368,775.771417" id="Path-25" stroke="#35DFEF"></path>
        <path d="M337,838 C359.522293,791.951187 374.095541,768.343042 380.719745,767.175566 C387.343949,766.00809 389.993631,770.663217 388.66879,781.140947" id="Path-26" stroke="#35DFEF"></path>
        <path d="M327,836 C356.333333,848 374,856.666667 380,862" id="Path-29" stroke="#35DFEF"></path>
        <line x1="181" y1="682.5" x2="363" y2="682.5" id="Path-8" stroke="#35DFEF"></line>
        <line x1="181" y1="700.5" x2="363" y2="700.5" id="Path-8-Copy" stroke="#35DFEF"></line>
        <line x1="181" y1="718.5" x2="363" y2="718.5" id="Path-8-Copy-2" stroke="#35DFEF"></line>
        <line x1="181" y1="736.5" x2="363" y2="736.5" id="Path-8-Copy-3" stroke="#35DFEF"></line>
        <path d="M356,846 C374.056075,802.666667 387.096573,781 395.121495,781 C403.146417,781 404.149533,787.333333 398.130841,800" id="Path-27" stroke="#35DFEF"></path>
        <path d="M372,857.076566 C386.690976,815.118329 398.043094,795.138217 406.056354,797.136228 C414.069613,799.134239 405.722468,844.755497 381.014917,934" id="Path-28" stroke="#35DFEF"></path>
    </g>
</svg>