<?xml version="1.0" encoding="UTF-8"?>
<svg width="420px" height="915px" viewBox="0 0 420 915" version="1.1" xmlns="http://www.w3.org/2000/svg" xmlns:xlink="http://www.w3.org/1999/xlink">
    <!-- Generator: Sketch 61.2 (89653) - https://sketch.com -->
    <title>side-img3</title>
    <desc>Created with Sketch.</desc>
    <g id="side-img3" stroke="none" stroke-width="1" fill="none" fill-rule="evenodd">
        <g id="Group" transform="translate(-94.000000, -8.000000)">
            <g id="Group-8">
                <g id="Group-5">
                    <polyline id="Path-9" stroke="#2CC3F8" points="135 -0.00325071545 135 529.676255 345 529.676255 345 966"></polyline>
                    <rect id="Rectangle-Copy-4" fill="#FC6C22" x="0" y="192" width="181" height="175" rx="87.5"></rect>
                    <circle id="Oval-Copy-3" stroke="#2CC3F8" cx="131.5" cy="887.5" r="94.5"></circle>
                    <g id="Group-Copy" opacity="0.411574591" transform="translate(398.000000, 885.000000)" fill="#FFFFFF">
                        <ellipse id="Oval-Copy-14" cx="3.18181818" cy="3.17592593" rx="3.18181818" ry="3.17592593"></ellipse>
                        <ellipse id="Oval-Copy-24" cx="58.6363636" cy="3.17592593" rx="3.18181818" ry="3.17592593"></ellipse>
                        <ellipse id="Oval-Copy-15" cx="3.18181818" cy="21.3240741" rx="3.18181818" ry="3.17592593"></ellipse>
                        <ellipse id="Oval-Copy-26" cx="58.6363636" cy="21.3240741" rx="3.18181818" ry="3.17592593"></ellipse>
                        <ellipse id="Oval-Copy-16" cx="22.2727273" cy="3.17592593" rx="3.18181818" ry="3.17592593"></ellipse>
                        <ellipse id="Oval-Copy-28" cx="77.7272727" cy="3.17592593" rx="3.18181818" ry="3.17592593"></ellipse>
                        <ellipse id="Oval-Copy-17" cx="22.2727273" cy="21.3240741" rx="3.18181818" ry="3.17592593"></ellipse>
                        <ellipse id="Oval-Copy-30" cx="77.7272727" cy="21.3240741" rx="3.18181818" ry="3.17592593"></ellipse>
                        <ellipse id="Oval-Copy-18" cx="41.3636364" cy="3.17592593" rx="3.18181818" ry="3.17592593"></ellipse>
                        <ellipse id="Oval-Copy-32" cx="96.8181818" cy="3.17592593" rx="3.18181818" ry="3.17592593"></ellipse>
                        <ellipse id="Oval-Copy-19" cx="41.3636364" cy="21.3240741" rx="3.18181818" ry="3.17592593"></ellipse>
                        <ellipse id="Oval-Copy-34" cx="96.8181818" cy="21.3240741" rx="3.18181818" ry="3.17592593"></ellipse>
                        <ellipse id="Oval-Copy-20" cx="3.18181818" cy="40.3796296" rx="3.18181818" ry="3.17592593"></ellipse>
                        <ellipse id="Oval-Copy-36" cx="58.6363636" cy="40.3796296" rx="3.18181818" ry="3.17592593"></ellipse>
                        <ellipse id="Oval-Copy-21" cx="22.2727273" cy="40.3796296" rx="3.18181818" ry="3.17592593"></ellipse>
                        <ellipse id="Oval-Copy-38" cx="77.7272727" cy="40.3796296" rx="3.18181818" ry="3.17592593"></ellipse>
                        <ellipse id="Oval-Copy-22" cx="41.3636364" cy="40.3796296" rx="3.18181818" ry="3.17592593"></ellipse>
                        <ellipse id="Oval-Copy-40" cx="96.8181818" cy="40.3796296" rx="3.18181818" ry="3.17592593"></ellipse>
                    </g>
                    <g id="Group-Copy-2" opacity="0.411574591" transform="translate(133.000000, 316.000000)" fill="#FFFFFF">
                        <ellipse id="Oval" cx="3.18181818" cy="57.6203704" rx="3.18181818" ry="3.17592593"></ellipse>
                        <ellipse id="Oval-Copy-23" cx="58.6363636" cy="57.6203704" rx="3.18181818" ry="3.17592593"></ellipse>
                        <ellipse id="Oval-Copy-14" cx="3.18181818" cy="3.17592593" rx="3.18181818" ry="3.17592593"></ellipse>
                        <ellipse id="Oval-Copy-24" cx="58.6363636" cy="3.17592593" rx="3.18181818" ry="3.17592593"></ellipse>
                        <ellipse id="Oval-Copy-8" cx="3.18181818" cy="76.6759259" rx="3.18181818" ry="3.17592593"></ellipse>
                        <ellipse id="Oval-Copy-25" cx="58.6363636" cy="76.6759259" rx="3.18181818" ry="3.17592593"></ellipse>
                        <ellipse id="Oval-Copy-15" cx="3.18181818" cy="21.3240741" rx="3.18181818" ry="3.17592593"></ellipse>
                        <ellipse id="Oval-Copy-26" cx="58.6363636" cy="21.3240741" rx="3.18181818" ry="3.17592593"></ellipse>
                        <ellipse id="Oval-Copy-6" cx="22.2727273" cy="57.6203704" rx="3.18181818" ry="3.17592593"></ellipse>
                        <ellipse id="Oval-Copy-27" cx="77.7272727" cy="57.6203704" rx="3.18181818" ry="3.17592593"></ellipse>
                        <ellipse id="Oval-Copy-16" cx="22.2727273" cy="3.17592593" rx="3.18181818" ry="3.17592593"></ellipse>
                        <ellipse id="Oval-Copy-28" cx="77.7272727" cy="3.17592593" rx="3.18181818" ry="3.17592593"></ellipse>
                        <ellipse id="Oval-Copy-9" cx="22.2727273" cy="76.6759259" rx="3.18181818" ry="3.17592593"></ellipse>
                        <ellipse id="Oval-Copy-29" cx="77.7272727" cy="76.6759259" rx="3.18181818" ry="3.17592593"></ellipse>
                        <ellipse id="Oval-Copy-17" cx="22.2727273" cy="21.3240741" rx="3.18181818" ry="3.17592593"></ellipse>
                        <ellipse id="Oval-Copy-30" cx="77.7272727" cy="21.3240741" rx="3.18181818" ry="3.17592593"></ellipse>
                        <ellipse id="Oval-Copy-7" cx="41.3636364" cy="57.6203704" rx="3.18181818" ry="3.17592593"></ellipse>
                        <ellipse id="Oval-Copy-31" cx="96.8181818" cy="57.6203704" rx="3.18181818" ry="3.17592593"></ellipse>
                        <ellipse id="Oval-Copy-18" cx="41.3636364" cy="3.17592593" rx="3.18181818" ry="3.17592593"></ellipse>
                        <ellipse id="Oval-Copy-32" cx="96.8181818" cy="3.17592593" rx="3.18181818" ry="3.17592593"></ellipse>
                        <ellipse id="Oval-Copy-10" cx="41.3636364" cy="76.6759259" rx="3.18181818" ry="3.17592593"></ellipse>
                        <ellipse id="Oval-Copy-33" cx="96.8181818" cy="76.6759259" rx="3.18181818" ry="3.17592593"></ellipse>
                        <ellipse id="Oval-Copy-19" cx="41.3636364" cy="21.3240741" rx="3.18181818" ry="3.17592593"></ellipse>
                        <ellipse id="Oval-Copy-34" cx="96.8181818" cy="21.3240741" rx="3.18181818" ry="3.17592593"></ellipse>
                        <ellipse id="Oval-Copy-13" cx="3.18181818" cy="94.8240741" rx="3.18181818" ry="3.17592593"></ellipse>
                        <ellipse id="Oval-Copy-35" cx="58.6363636" cy="94.8240741" rx="3.18181818" ry="3.17592593"></ellipse>
                        <ellipse id="Oval-Copy-20" cx="3.18181818" cy="40.3796296" rx="3.18181818" ry="3.17592593"></ellipse>
                        <ellipse id="Oval-Copy-36" cx="58.6363636" cy="40.3796296" rx="3.18181818" ry="3.17592593"></ellipse>
                        <ellipse id="Oval-Copy-12" cx="22.2727273" cy="94.8240741" rx="3.18181818" ry="3.17592593"></ellipse>
                        <ellipse id="Oval-Copy-37" cx="77.7272727" cy="94.8240741" rx="3.18181818" ry="3.17592593"></ellipse>
                        <ellipse id="Oval-Copy-21" cx="22.2727273" cy="40.3796296" rx="3.18181818" ry="3.17592593"></ellipse>
                        <ellipse id="Oval-Copy-38" cx="77.7272727" cy="40.3796296" rx="3.18181818" ry="3.17592593"></ellipse>
                        <ellipse id="Oval-Copy-11" cx="41.3636364" cy="94.8240741" rx="3.18181818" ry="3.17592593"></ellipse>
                        <ellipse id="Oval-Copy-39" cx="96.8181818" cy="94.8240741" rx="3.18181818" ry="3.17592593"></ellipse>
                        <ellipse id="Oval-Copy-22" cx="41.3636364" cy="40.3796296" rx="3.18181818" ry="3.17592593"></ellipse>
                        <ellipse id="Oval-Copy-40" cx="96.8181818" cy="40.3796296" rx="3.18181818" ry="3.17592593"></ellipse>
                    </g>
                </g>
            </g>
            <rect id="Rectangle-Copy-5" fill="#FFC107" x="224" y="496" width="62" height="60" rx="30"></rect>
            <rect id="Rectangle-Copy-39" fill="#FFC107" opacity="0.47953869" x="241" y="515" width="62" height="60" rx="30"></rect>
            <rect id="Rectangle-Copy-40" fill="#FFC107" opacity="0.47953869" x="258" y="534" width="62" height="60" rx="30"></rect>
        </g>
    </g>
</svg>